# xmcd
#
# Track frame offsets:
# 150
# 13367
# 28228
# 44782
# 58168
# 72727
# 85123
# 103565
# 119249
# 130378
# 143247
# 160547
# 171403
# 188954
# 207230
# 223631
# 241509
# 258698
# 278234
# 292748
#
# Disc length: 4125 seconds
#
#
# Revision: 0
# Processed by: cddbd v1.5.2PL0 Copyright (c) Steve Scherf et al.
# Submitted via: FreeRIP 2.951 
#
DISCID=41101b14
DTITLE=Alan Jackson - Alan Jackson 20 Best Hits
DYEAR=1900
DGENRE=Country
TTITLE0=I Slipped and Fell in Love
TTITLE1=Someday
TTITLE2=That'd be Alright
TTITLE3=Wanted
TTITLE4=I'd Love You All Over Again
TTITLE5=Dallas
TTITLE6=Work i Progress
TTITLE7=(Who Says) You Can't Have It All
TTITLE8=Tall, Tall Trees
TTITLE9=Don't Rock The Jukebox
TTITLE10=I Don't Even Know Your Name
TTITLE11=She's Got The Rythm
TTITLE12=I'll Try
TTITLE13=Drive (For Daddy Gene)
TTITLE14=Mercury Blues
TTITLE15=Chattahoochee
TTITLE16=Livin'on Love
TTITLE17=Gone Country
TTITLE18=Summertime Blues
TTITLE19=Midnight in Montgomery
EXTD=
EXTT0=
EXTT1=
EXTT2=
EXTT3=
EXTT4=
EXTT5=
EXTT6=
EXTT7=
EXTT8=
EXTT9=
EXTT10=
EXTT11=
EXTT12=
EXTT13=
EXTT14=
EXTT15=
EXTT16=
EXTT17=
EXTT18=
EXTT19=
PLAYORDER=
